<svg xmlns="http://www.w3.org/2000/svg" version="1.1" xmlns:xlink="http://www.w3.org/1999/xlink" xmlns:svgjs="http://svgjs.dev/svgjs" width="1440" height="560" preserveAspectRatio="none" viewBox="0 0 1440 560"><g mask="url(&quot;#SvgjsMask1073&quot;)" fill="none"><rect width="1440" height="560" x="0" y="0" fill="rgba(51, 51, 51, 1)"></rect><path d="M1139 355L833 49" stroke-width="6" stroke="url(&quot;#SvgjsLinearGradient1074&quot;)" stroke-linecap="round" class="TopLeft"></path><path d="M999 466L1270 737" stroke-width="8" stroke="url(&quot;#SvgjsLinearGradient1075&quot;)" stroke-linecap="round" class="BottomRight"></path><path d="M133 12L538 417" stroke-width="8" stroke="url(&quot;#SvgjsLinearGradient1075&quot;)" stroke-linecap="round" class="BottomRight"></path><path d="M1124 238L900 14" stroke-width="6" stroke="url(&quot;#SvgjsLinearGradient1076&quot;)" stroke-linecap="round" class="BottomRight"></path><path d="M343 182L585 424" stroke-width="10" stroke="url(&quot;#SvgjsLinearGradient1074&quot;)" stroke-linecap="round" class="TopLeft"></path><path d="M142 75L448 381" stroke-width="10" stroke="url(&quot;#SvgjsLinearGradient1076&quot;)" stroke-linecap="round" class="BottomRight"></path><path d="M1107 483L784 160" stroke-width="6" stroke="url(&quot;#SvgjsLinearGradient1077&quot;)" stroke-linecap="round" class="TopLeft"></path><path d="M354 44L-18 -328" stroke-width="8" stroke="url(&quot;#SvgjsLinearGradient1077&quot;)" stroke-linecap="round" class="TopLeft"></path><path d="M546 20L246 -280" stroke-width="8" stroke="url(&quot;#SvgjsLinearGradient1074&quot;)" stroke-linecap="round" class="TopLeft"></path><path d="M658 93L340 -225" stroke-width="6" stroke="url(&quot;#SvgjsLinearGradient1076&quot;)" stroke-linecap="round" class="BottomRight"></path><path d="M354 94L717 457" stroke-width="10" stroke="url(&quot;#SvgjsLinearGradient1076&quot;)" stroke-linecap="round" class="BottomRight"></path><path d="M1383 446L1198 261" stroke-width="6" stroke="url(&quot;#SvgjsLinearGradient1076&quot;)" stroke-linecap="round" class="BottomRight"></path><path d="M526 192L733 399" stroke-width="10" stroke="url(&quot;#SvgjsLinearGradient1074&quot;)" stroke-linecap="round" class="TopLeft"></path><path d="M358 525L-60 107" stroke-width="10" stroke="url(&quot;#SvgjsLinearGradient1075&quot;)" stroke-linecap="round" class="BottomRight"></path><path d="M68 90L-94 -72" stroke-width="8" stroke="url(&quot;#SvgjsLinearGradient1075&quot;)" stroke-linecap="round" class="BottomRight"></path><path d="M1269 188L1497 416" stroke-width="6" stroke="url(&quot;#SvgjsLinearGradient1077&quot;)" stroke-linecap="round" class="TopLeft"></path><path d="M356 306L693 643" stroke-width="10" stroke="url(&quot;#SvgjsLinearGradient1076&quot;)" stroke-linecap="round" class="BottomRight"></path><path d="M818 206L992 380" stroke-width="8" stroke="url(&quot;#SvgjsLinearGradient1077&quot;)" stroke-linecap="round" class="TopLeft"></path><path d="M355 327L200 172" stroke-width="6" stroke="url(&quot;#SvgjsLinearGradient1075&quot;)" stroke-linecap="round" class="BottomRight"></path><path d="M1154 520L1328 694" stroke-width="10" stroke="url(&quot;#SvgjsLinearGradient1076&quot;)" stroke-linecap="round" class="BottomRight"></path><path d="M392 456L551 615" stroke-width="10" stroke="url(&quot;#SvgjsLinearGradient1076&quot;)" stroke-linecap="round" class="BottomRight"></path><path d="M176 454L552 830" stroke-width="8" stroke="url(&quot;#SvgjsLinearGradient1075&quot;)" stroke-linecap="round" class="BottomRight"></path><path d="M367 53L-9 -323" stroke-width="8" stroke="url(&quot;#SvgjsLinearGradient1077&quot;)" stroke-linecap="round" class="TopLeft"></path><path d="M1102 256L930 84" stroke-width="8" stroke="url(&quot;#SvgjsLinearGradient1075&quot;)" stroke-linecap="round" class="BottomRight"></path><path d="M993 350L684 41" stroke-width="6" stroke="url(&quot;#SvgjsLinearGradient1076&quot;)" stroke-linecap="round" class="BottomRight"></path><path d="M902 90L1084 272" stroke-width="8" stroke="url(&quot;#SvgjsLinearGradient1076&quot;)" stroke-linecap="round" class="BottomRight"></path><path d="M1296 323L1145 172" stroke-width="10" stroke="url(&quot;#SvgjsLinearGradient1077&quot;)" stroke-linecap="round" class="TopLeft"></path><path d="M28 88L-190 -130" stroke-width="6" stroke="url(&quot;#SvgjsLinearGradient1074&quot;)" stroke-linecap="round" class="TopLeft"></path><path d="M272 1L688 417" stroke-width="6" stroke="url(&quot;#SvgjsLinearGradient1074&quot;)" stroke-linecap="round" class="TopLeft"></path><path d="M312 401L100 189" stroke-width="8" stroke="url(&quot;#SvgjsLinearGradient1077&quot;)" stroke-linecap="round" class="TopLeft"></path><path d="M1183 156L1514 487" stroke-width="10" stroke="url(&quot;#SvgjsLinearGradient1075&quot;)" stroke-linecap="round" class="BottomRight"></path><path d="M495 22L651 178" stroke-width="6" stroke="url(&quot;#SvgjsLinearGradient1077&quot;)" stroke-linecap="round" class="TopLeft"></path><path d="M267 365L35 133" stroke-width="10" stroke="url(&quot;#SvgjsLinearGradient1074&quot;)" stroke-linecap="round" class="TopLeft"></path><path d="M159 385L-235 -9" stroke-width="6" stroke="url(&quot;#SvgjsLinearGradient1075&quot;)" stroke-linecap="round" class="BottomRight"></path><path d="M56 474L423 841" stroke-width="6" stroke="url(&quot;#SvgjsLinearGradient1074&quot;)" stroke-linecap="round" class="TopLeft"></path><path d="M849 419L1260 830" stroke-width="8" stroke="url(&quot;#SvgjsLinearGradient1076&quot;)" stroke-linecap="round" class="BottomRight"></path><path d="M1335 123L1654 442" stroke-width="10" stroke="url(&quot;#SvgjsLinearGradient1074&quot;)" stroke-linecap="round" class="TopLeft"></path><path d="M787 64L623 -100" stroke-width="8" stroke="url(&quot;#SvgjsLinearGradient1075&quot;)" stroke-linecap="round" class="BottomRight"></path><path d="M118 504L-264 122" stroke-width="6" stroke="url(&quot;#SvgjsLinearGradient1074&quot;)" stroke-linecap="round" class="TopLeft"></path></g><defs><mask id="SvgjsMask1073"><rect width="1440" height="560" fill="#ffffff"></rect></mask><linearGradient x1="100%" y1="100%" x2="0%" y2="0%" id="SvgjsLinearGradient1074"><stop stop-color="rgba(0, 0, 0, 0)" offset="0"></stop><stop stop-color="rgba(0, 0, 0, 1)" offset="1"></stop></linearGradient><linearGradient x1="0%" y1="0%" x2="100%" y2="100%" id="SvgjsLinearGradient1075"><stop stop-color="rgba(51, 51, 51, 0)" offset="0"></stop><stop stop-color="rgba(51, 51, 51, 1)" offset="1"></stop></linearGradient><linearGradient x1="0%" y1="0%" x2="100%" y2="100%" id="SvgjsLinearGradient1076"><stop stop-color="rgba(0, 0, 0, 0)" offset="0"></stop><stop stop-color="rgba(0, 0, 0, 1)" offset="1"></stop></linearGradient><linearGradient x1="100%" y1="100%" x2="0%" y2="0%" id="SvgjsLinearGradient1077"><stop stop-color="rgba(51, 51, 51, 0)" offset="0"></stop><stop stop-color="rgba(51, 51, 51, 1)" offset="1"></stop></linearGradient></defs></svg>